name analog
datacolumns 19
datarows 37
range 0.3255 0.3435
endheader
time	ground_force_vx	ground_force_vy	ground_force_vz	ground_force_px	ground_force_py	ground_force_pz	l_ground_force_vx	l_ground_force_vy	l_ground_force_vz	l_ground_force_px	l_ground_force_py	l_ground_force_pz	ground_torque_x	ground_torque_y	ground_torque_z	l_ground_torque_x	l_ground_torque_y	l_ground_torque_z
0.3255	-0.0	-0.0	-0.0	1.414013147354126	6.965514183044434	-290.26104736328125	4.462177753448486	-11.022445678710938	-300.21795654296875	-0.0	-0.0	-0.0	-0.0	-0.0	-0.0	84420.546875	-7364.47265625	-2182.916748046875
0.326	-0.0	-0.0	-0.0	0.6871002912521362	7.424383163452148	-284.4151306152344	4.586447715759277	-10.497082710266112	-296.2732238769531	-0.0	-0.0	-0.0	-0.0	-0.0	-0.0	83593.3515625	-7655.4384765625	-2173.744873046875
0.3265	-0.0	-0.0	-0.0	0.2180635631084442	7.236050605773926	-281.0136108398437	4.590146064758301	-9.905150413513184	-294.38671875	-0.0	-0.0	-0.0	-0.0	-0.0	-0.0	82938.640625	-7408.31591796875	-2050.4775390625
0.327	-0.0	-0.0	-0.0	0.1155123189091682	7.4109625816345215	-279.0009155273437	4.474887847900391	-10.18002223968506	-292.1366882324219	-0.0	-0.0	-0.0	-0.0	-0.0	-0.0	82441.34375	-7182.57177734375	-2173.650146484375
0.3275	-0.0	-0.0	-0.0	-0.5875856280326843	7.738924026489258	-273.6202087402344	4.346828460693359	-10.281681060791016	-289.3440246582031	-0.0	-0.0	-0.0	-0.0	-0.0	-0.0	81418.140625	-7281.041015625	-2059.426513671875
0.328	-0.0	-0.0	-0.0	-0.8791021704673767	7.524118900299072	-268.8729248046875	4.4723734855651855	-10.144082069396973	-286.2451477050781	-0.0	-0.0	-0.0	-0.0	-0.0	-0.0	80579.2578125	-7307.69775390625	-2059.224853515625
0.3285	-0.0	-0.0	-0.0	-1.6057891845703125	7.499882221221924	-267.2547912597656	4.333921432495117	-9.753935813903809	-282.0129089355469	-0.0	-0.0	-0.0	-0.0	-0.0	-0.0	79714.4296875	-6968.71337890625	-2148.154296875
0.329	-0.0	-0.0	-0.0	-2.038151264190674	7.537530899047852	-261.6077575683594	3.674534559249878	-10.06867218017578	-279.2246398925781	-0.0	-0.0	-0.0	-0.0	-0.0	-0.0	78598.2890625	-6839.728515625	-2296.578857421875
0.3295	-0.0	-0.0	-0.0	-2.34507155418396	7.703577518463135	-258.0732116699219	3.1169893741607666	-9.841838836669922	-276.3270874023437	-0.0	-0.0	-0.0	-0.0	-0.0	-0.0	77716.265625	-6314.60498046875	-2445.54150390625
0.33	-0.0	-0.0	-0.0	-3.5173959732055664	8.31456184387207	-255.65234375	2.255858898162842	-10.169634819030762	-274.2332763671875	-0.0	-0.0	-0.0	-0.0	-0.0	-0.0	76875.03125	-6478.76025390625	-2713.142822265625
0.3305	-0.0	-0.0	-0.0	-4.740808010101318	8.797977447509766	-248.99185180664065	1.5589367151260376	-10.3717041015625	-270.5443115234375	-0.0	-0.0	-0.0	-0.0	-0.0	-0.0	75336.8515625	-6293.92138671875	-2997.593994140625
0.331	-0.0	-0.0	-0.0	-5.351537227630615	8.785086631774902	-244.65402221679688	0.2661323547363281	-10.371953010559082	-265.65496826171875	-0.0	-0.0	-0.0	-0.0	-0.0	-0.0	74296.21875	-6025.89111328125	-3235.825439453125
0.3315	-0.0	-0.0	-0.0	-6.701720714569092	9.30708122253418	-240.81915283203125	-0.7983970642089844	-10.446823120117188	-260.6636962890625	-0.0	-0.0	-0.0	-0.0	-0.0	-0.0	73552.09375	-5795.16162109375	-3571.69287109375
0.332	-0.0	-0.0	-0.0	-8.73019027709961	9.101602554321287	-238.4457092285156	-1.4708547592163086	-10.497925758361816	-255.12489318847656	-0.0	-0.0	-0.0	-0.0	-0.0	-0.0	72373.453125	-5843.10009765625	-3673.754150390625
0.3325	-0.0	-0.0	-0.0	-10.397927284240724	9.6508150100708	-234.06028747558597	-1.887619972229004	-10.473402976989746	-253.13491821289065	-0.0	-0.0	-0.0	-0.0	-0.0	-0.0	71445.1640625	-5400.0224609375	-3945.191650390625
0.333	-0.0	-0.0	-0.0	-11.514225006103516	10.108600616455078	-232.3437042236328	-1.6458719968795776	-10.269746780395508	-252.5443115234375	-0.0	-0.0	-0.0	-0.0	-0.0	-0.0	70848.5703125	-5386.75390625	-3961.40478515625
0.3335	-0.0	-0.0	-0.0	-12.984441757202148	10.274433135986328	-232.55191040039065	-2.33419132232666	-10.297198295593262	-249.29425048828125	-0.0	-0.0	-0.0	-0.0	-0.0	-0.0	70478.96875	-5277.2509765625	-3869.867431640625
0.334	-0.0	-0.0	-0.0	-14.249349594116213	10.671337127685549	-231.6700134277344	-1.153240203857422	-9.121301651000977	-250.4997711181641	-0.0	-0.0	-0.0	-0.0	-0.0	-0.0	70243.7578125	-5410.16015625	-3750.177734375
0.3345	-0.0	-0.0	-0.0	-14.760590553283691	10.363282203674316	-230.8839569091797	-0.2136012464761734	-8.450594902038574	-250.2942352294922	-0.0	-0.0	-0.0	-0.0	-0.0	-0.0	70527.3359375	-5215.36962890625	-3282.908935546875
0.335	-0.0	-0.0	-0.0	-14.362892150878906	9.934545516967772	-231.02728271484372	0.3381158411502838	-8.14224910736084	-251.6252593994141	-0.0	-0.0	-0.0	-0.0	-0.0	-0.0	71192.59375	-5544.3623046875	-2977.837158203125
0.3355	-0.0	-0.0	-0.0	-13.239021301269531	9.821806907653809	-232.487060546875	1.7570692300796509	-7.254253387451172	-253.2757568359375	-0.0	-0.0	-0.0	-0.0	-0.0	-0.0	71660.09375	-5737.369140625	-2605.294921875
0.336	-0.0	-0.0	-0.0	-11.823297500610352	8.170201301574707	-231.921142578125	3.140427827835083	-6.300170421600342	-256.8822937011719	-0.0	-0.0	-0.0	-0.0	-0.0	-0.0	72736.1875	-5969.98583984375	-2186.58056640625
0.3365	-0.0	-0.0	-0.0	-9.878738403320312	7.736035346984863	-235.21783447265625	4.890880107879639	-4.946014404296875	-259.11688232421875	-0.0	-0.0	-0.0	-0.0	-0.0	-0.0	73415.5234375	-6275.84814453125	-1583.8702392578125
0.337	-0.0	-0.0	-0.0	-7.993736743927002	6.874766826629639	-234.9296417236328	7.131991863250732	-3.732827425003052	-260.0914001464844	-0.0	-0.0	-0.0	-0.0	-0.0	-0.0	74238.4453125	-6485.09814453125	-874.0501708984375
0.3375	-0.0	-0.0	-0.0	-5.232542037963867	6.37076473236084	-236.891357421875	9.118341445922852	-2.3499181270599365	-264.0502319335937	-0.0	-0.0	-0.0	-0.0	-0.0	-0.0	75330.546875	-6991.115234375	-257.1959533691406
0.338	-0.0	-0.0	-0.0	-3.754828453063965	5.367396831512451	-239.05686950683597	11.786956787109377	-1.1174935102462769	-268.755615234375	-0.0	-0.0	-0.0	-0.0	-0.0	-0.0	76835.7578125	-7510.0556640625	509.8234558105469
0.3385	-0.0	-0.0	-0.0	-1.3612089157104492	3.890183687210083	-241.3131561279297	13.695960998535156	0.1193947196006774	-273.612060546875	-0.0	-0.0	-0.0	-0.0	-0.0	-0.0	78774.0703125	-7696.48291015625	1233.6875
0.339	-0.0	-0.0	-0.0	0.6244735717773438	3.5856316089630127	-250.62161254882807	15.836270332336426	0.96292906999588	-282.114501953125	-0.0	-0.0	-0.0	-0.0	-0.0	-0.0	81075.921875	-8279.548828125	1836.312255859375
0.3395	-0.0	-0.0	-0.0	2.4656460285186768	1.670713186264038	-258.617919921875	17.755756378173828	1.9204412698745728	-287.7097473144531	-0.0	-0.0	-0.0	-0.0	-0.0	-0.0	83075.1875	-8565.884765625	2453.169677734375
0.34	-0.0	-0.0	-0.0	5.252105236053467	0.5121731758117676	-268.2427673339844	20.426061630249023	3.2470264434814453	-295.6552734375	-0.0	-0.0	-0.0	-0.0	-0.0	-0.0	85805.015625	-9259.025390625	3263.294677734375
0.3405	-0.0	-0.0	-0.0	7.505731582641602	-0.0562046021223068	-279.4989929199219	22.74364280700684	4.272974491119385	-304.94195556640625	-0.0	-0.0	-0.0	-0.0	-0.0	-0.0	88320.7421875	-9783.17578125	3870.20166015625
0.341	-0.0	-0.0	-0.0	11.976554870605469	-0.3455342054367065	-294.5970153808594	25.138601303100582	5.420925617218018	-313.53814697265625	-0.0	-0.0	-0.0	-0.0	-0.0	-0.0	90936.359375	-10004.85546875	4643.2802734375
0.3415	-0.0	-0.0	-0.0	15.176897048950195	-0.8580044507980347	-307.8383178710937	27.27855682373047	6.248746395111084	-322.703369140625	-0.0	-0.0	-0.0	-0.0	-0.0	-0.0	93256.9921875	-10473.10546875	5442.09228515625
0.342	-0.0	-0.0	-0.0	18.989904403686523	-1.4269812107086182	-321.4339294433594	29.65143585205078	6.943933010101318	-332.0865783691406	-0.0	-0.0	-0.0	-0.0	-0.0	-0.0	96566.8984375	-11270.5087890625	5966.71142578125
0.3425	-0.0	-0.0	-0.0	22.61410522460937	-1.571491837501526	-338.3837890625	31.72444725036621	7.296834945678711	-344.0482177734375	-0.0	-0.0	-0.0	-0.0	-0.0	-0.0	99783.0390625	-11559.515625	6557.82080078125
0.343	-0.0	-0.0	-0.0	25.869020462036133	-1.8826266527175903	-352.77557373046875	33.88751983642578	7.849801540374756	-353.1207275390625	-0.0	-0.0	-0.0	-0.0	-0.0	-0.0	103232.3125	-12026.333984375	7081.93017578125
0.3435	-0.0	-0.0	-0.0	30.14232444763184	-3.2411484718322754	-364.6531677246094	36.70465087890625	8.104077339172363	-364.906005859375	-0.0	-0.0	-0.0	-0.0	-0.0	-0.0	106345.3203125	-12552.755859375	7751.65380859375
